<svg width="95" height="18" viewBox="0 0 95 18" fill="none" xmlns="http://www.w3.org/2000/svg">
<path d="M85.3848 9.04846L81.3592 3.4115H86.0252L94.2597 14.8792H89.5483L87.7178 12.314L85.8873 14.8792H81.1978L85.3848 9.04846Z" fill="white"/>
<path d="M89.4447 3.4115H94.089L90.5242 8.43258L88.1658 5.21502L89.4447 3.4115Z" fill="white"/>
<path d="M21.4166 13.6092C20.2954 12.6019 19.7349 11.113 19.7349 9.1464C19.7349 7.17979 20.3063 5.69093 21.4511 4.68364C22.594 3.67636 24.1578 3.17175 26.1406 3.17175C26.9643 3.17175 27.6917 3.23123 28.3249 3.35402C28.958 3.4749 29.564 3.68019 30.1427 3.97183V7.16252C29.2428 6.71164 28.2215 6.48524 27.0786 6.48524C26.0717 6.48524 25.3279 6.6867 24.849 7.08962C24.3682 7.49253 24.1287 8.17748 24.1287 9.1464C24.1287 10.0827 24.3646 10.76 24.8381 11.1782C25.3098 11.5984 26.0572 11.8076 27.0804 11.8076C28.1634 11.8076 29.1921 11.5409 30.1681 11.0094V14.3478C29.085 14.8639 27.7353 15.121 26.1189 15.121C24.1033 15.121 22.5377 14.6164 21.4166 13.6092Z" fill="white"/>
<path d="M31.1443 9.14432C31.1443 7.19306 31.6704 5.70996 32.7226 4.69308C33.7748 3.6762 35.3604 3.16968 37.4811 3.16968C39.6164 3.16968 41.2128 3.67812 42.2741 4.69308C43.3336 5.70804 43.8633 7.19306 43.8633 9.14432C43.8633 13.1274 41.7353 15.119 37.4811 15.119C33.256 15.1209 31.1443 13.1293 31.1443 9.14432ZM39.0032 11.1781C39.3152 10.7579 39.4712 10.0806 39.4712 9.14624C39.4712 8.22721 39.3152 7.55377 39.0032 7.12591C38.6912 6.69806 38.1832 6.48509 37.4811 6.48509C36.7954 6.48509 36.2983 6.69997 35.9935 7.12591C35.6887 7.55377 35.5363 8.22721 35.5363 9.14624C35.5363 10.0825 35.6887 10.7598 35.9935 11.1781C36.2983 11.5983 36.7936 11.8074 37.4811 11.8074C38.1832 11.8074 38.6893 11.5963 39.0032 11.1781Z" fill="white"/>
<path d="M44.8643 3.41143H48.8899L49.0042 4.28249C49.4468 3.96016 50.011 3.69347 50.6968 3.48433C51.3825 3.2752 52.0919 3.16968 52.8248 3.16968C54.1818 3.16968 55.1723 3.52463 55.7982 4.23452C56.4241 4.94442 56.7361 6.03996 56.7361 7.52499V14.8791H52.4365V7.98355C52.4365 7.46743 52.3259 7.09713 52.1046 6.87073C51.8832 6.64433 51.5131 6.53305 50.9943 6.53305C50.675 6.53305 50.3466 6.6098 50.011 6.76329C49.6754 6.91678 49.3942 7.1144 49.1638 7.35615V14.8791H44.8643V3.41143Z" fill="white"/>
<path d="M56.7485 3.4115H61.2313L63.2904 10.1363L65.3494 3.4115H69.8322L65.5544 14.8792H61.0245L56.7485 3.4115Z" fill="white"/>
<path d="M71.1858 13.893C69.8941 12.8684 69.29 11.0898 69.29 9.16926C69.29 7.29859 69.7708 5.75792 70.8684 4.69308C71.9659 3.62823 73.6386 3.16968 75.7502 3.16968C77.6932 3.16968 79.2207 3.6455 80.3364 4.59715C81.4503 5.54879 82.0091 6.84771 82.0091 8.49198V10.5008H73.8327C74.0359 11.0975 74.2935 11.5292 74.9266 11.7959C75.5598 12.0626 76.4433 12.195 77.5735 12.195C78.2483 12.195 78.9377 12.1393 79.638 12.0261C79.8847 11.9858 80.2911 11.9225 80.5051 11.8745V14.6623C79.4366 14.9693 78.0125 15.1228 76.407 15.1228C74.2463 15.1209 72.4775 14.9175 71.1858 13.893ZM77.4918 8.03343C77.4918 7.46551 76.8732 6.24334 75.6305 6.24334C74.5094 6.24334 73.7692 7.44632 73.7692 8.03343H77.4918Z" fill="white"/>
<path d="M10.5014 13.8988C12.976 13.6244 15.3089 12.308 16.5935 10.1107C15.9852 15.5453 10.0329 18.9803 5.17432 16.8714C4.72662 16.6775 4.34126 16.3552 4.0768 15.9407C2.98495 14.2289 2.62603 12.0508 3.14174 10.0743C4.61517 12.6131 7.61116 14.1694 10.5014 13.8988Z" fill="#F3B01C"/>
<path d="M3.05148 8.47957C2.04841 10.7939 2.00496 13.5035 3.23471 15.7334C-1.09304 12.4826 -1.04581 5.52624 3.18182 2.30808C3.57285 2.01063 4.03755 1.83409 4.52492 1.80722C6.52917 1.70168 8.56553 2.47503 9.99364 3.9162C7.0921 3.94498 4.26612 5.80065 3.05148 8.47957Z" fill="#8D2676"/>
<path d="M11.3931 4.62831C9.92909 2.59033 7.63771 1.2029 5.1272 1.16068C9.98009 -1.03849 15.9494 2.52701 16.5992 7.79849C16.6597 8.28784 16.5803 8.78677 16.3631 9.22814C15.4564 11.0665 13.7751 12.4924 11.8106 13.0201C13.25 10.3546 13.0724 7.09806 11.3931 4.62831Z" fill="#EE342F"/>
</svg>
