<svg width="77" height="36" viewBox="0 0 77 36" fill="none" xmlns="http://www.w3.org/2000/svg">
<path d="M0 25.9358V12.8064L9.97532 12.789L9.22246 14.8479H2.3916V18.1674H8.09318L7.25799 20.4632H2.3916V25.9358H0ZM11.0922 25.9358H8.53946L13.1873 12.8064H16.1397L20.794 25.9358H18.2412L14.7151 15.4989H14.612L11.0922 25.9358ZM11.2895 18.1674H18.0402L18.1381 20.4521H11.176L11.2895 18.1674ZM29.4682 16.4157C29.4081 15.8558 29.1545 15.4199 28.7075 15.1079C28.2649 14.7959 27.689 14.6399 26.9799 14.6399C26.4813 14.6399 26.0538 14.7147 25.6971 14.8642C25.3404 15.0138 25.0675 15.2168 24.8784 15.4733C24.6893 15.7297 24.5926 16.0225 24.5884 16.3516C24.5884 16.6251 24.6507 16.8623 24.7752 17.0631C24.9042 17.264 25.0782 17.435 25.2974 17.5761C25.5166 17.7128 25.7595 17.8282 26.0258 17.9222C26.2923 18.0162 26.5609 18.0953 26.8317 18.1594L28.0694 18.4671C28.5678 18.5826 29.0471 18.7385 29.5068 18.9351C29.9711 19.1317 30.3858 19.3797 30.751 19.6787C31.1206 19.9779 31.4129 20.3391 31.6277 20.7622C31.8426 21.1853 31.9501 21.681 31.9501 22.2495C31.9501 23.0188 31.7523 23.6962 31.357 24.2817C30.9616 24.8631 30.39 25.3182 29.6422 25.6473C28.8988 25.9721 27.9984 26.1345 26.9412 26.1345C25.9141 26.1345 25.0223 25.9763 24.266 25.6601C23.5139 25.3439 22.9252 24.8822 22.4997 24.2754C22.0785 23.6684 21.8508 22.9291 21.8164 22.0571H24.1693C24.2036 22.5145 24.3455 22.8949 24.5948 23.1983C24.8441 23.5017 25.1685 23.7282 25.5681 23.8778C25.9721 24.0274 26.4234 24.1023 26.9219 24.1023C27.4419 24.1023 27.8974 24.0253 28.2885 23.8715C28.6839 23.7133 28.9933 23.4954 29.2167 23.2176C29.4403 22.9355 29.5541 22.6064 29.5585 22.2303C29.5541 21.8884 29.4532 21.6063 29.2555 21.384C29.0578 21.1575 28.7806 20.9695 28.4239 20.8199C28.0715 20.666 27.659 20.5293 27.1862 20.4096L25.6842 20.025C24.5969 19.7472 23.7373 19.3262 23.1056 18.762C22.4783 18.1936 22.1645 17.4392 22.1645 16.499C22.1645 15.7254 22.375 15.048 22.7962 14.4668C23.2217 13.8855 23.7997 13.4346 24.5303 13.1141C25.2609 12.7893 26.0881 12.6269 27.0121 12.6269C27.9491 12.6269 28.7698 12.7893 29.4746 13.1141C30.1837 13.4346 30.7403 13.8812 31.1442 14.4539C31.5482 15.0224 31.7567 15.6763 31.7695 16.4157H29.4682ZM33.4753 14.8001V12.8064H41.1764L41.8963 14.8001H39.9281V25.9358H37.5558V14.8001H33.4753Z" fill="white"/>
<path d="M65.085 0.864336L45.4822 8.08974C44.1871 8.56711 43.5242 10.004 44.0015 11.2991L51.227 30.9019C51.7043 32.197 53.1412 32.8599 54.4363 32.3826L74.0391 25.1571C75.3342 24.6798 75.9971 23.2429 75.5198 21.9478L68.2944 2.34499C67.817 1.04988 66.3801 0.386973 65.085 0.864336Z" fill="url(#paint0_linear_539_6507)"/>
<path d="M63.4077 6.08141L50.1438 10.9703C49.3344 11.2687 48.9201 12.1667 49.2184 12.9762L54.1074 26.2401C54.4057 27.0495 55.3038 27.4638 56.1132 27.1655L69.3771 22.2765C70.1865 21.9782 70.6008 21.0801 70.3025 20.2707L65.4136 7.00682C65.1152 6.19738 64.2172 5.78306 63.4077 6.08141Z" fill="url(#paint1_linear_539_6507)"/>
<g filter="url(#filter0_i_539_6507)">
<path d="M61.1288 23.764C60.2354 24.0966 59.4035 24.2251 58.633 24.1496C57.8652 24.0685 57.2205 23.8067 56.6991 23.3644C56.1777 22.922 55.8362 22.3221 55.6748 21.5646L58.3422 20.5716C58.4706 21.0719 58.7612 21.4121 59.2138 21.592C59.6649 21.7678 60.1636 21.7541 60.7098 21.5507C61.1417 21.3899 61.5055 21.15 61.8013 20.8308C62.0955 20.5076 62.3039 20.135 62.4265 19.7131C62.5532 19.2896 62.5713 18.8461 62.4808 18.3828C62.393 17.9137 62.219 17.5372 61.959 17.253C61.6989 16.9689 61.3815 16.7897 61.0068 16.7155C60.6306 16.6373 60.2223 16.6801 59.7819 16.844C59.3966 16.9874 59.0423 17.2076 58.719 17.5045C58.3941 17.7974 58.1567 18.118 58.0069 18.4665L55.4744 18.9285L54.7729 11.6637L62.7244 8.70345L63.1626 11.0071L57.4848 13.1209L57.7708 16.5893L57.847 16.5609C58.0152 16.1452 58.3091 15.7431 58.7285 15.3547C59.148 14.9662 59.6435 14.6656 60.2151 14.4528C60.9984 14.1612 61.7313 14.0905 62.4139 14.2405C63.1007 14.389 63.6823 14.7276 64.1588 15.2564C64.6352 15.7851 64.9525 16.4754 65.1105 17.3271C65.2852 18.2237 65.2358 19.0946 64.9623 19.9397C64.6887 20.7849 64.2239 21.5433 63.5676 22.215C62.9113 22.8867 62.0984 23.4031 61.1288 23.764Z" fill="url(#paint2_linear_539_6507)"/>
<path d="M60.5644 22.8025C59.7281 23.1139 58.9492 23.2342 58.2279 23.1635C57.5091 23.0876 56.9056 22.8425 56.4175 22.4284C55.9294 22.0143 55.6097 21.4527 55.4585 20.7435L57.9557 19.8139C58.0759 20.2823 58.3479 20.6007 58.7717 20.7692C59.194 20.9338 59.6608 20.9209 60.1721 20.7305C60.5764 20.58 60.917 20.3554 61.1939 20.0566C61.4694 19.754 61.6645 19.4052 61.7792 19.0102C61.8979 18.6137 61.9148 18.1986 61.8301 17.7648C61.7478 17.3257 61.585 16.9732 61.3416 16.7072C61.0981 16.4412 60.801 16.2735 60.4502 16.204C60.098 16.1307 59.7157 16.1708 59.3035 16.3243C58.9428 16.4586 58.6111 16.6647 58.3084 16.9426C58.0043 17.2168 57.7821 17.517 57.6418 17.8432L55.2709 18.2757L54.6142 11.4746L62.0581 8.70341L62.4684 10.86L57.153 12.8389L57.4208 16.0858L57.4921 16.0592C57.6496 15.6701 57.9247 15.2937 58.3173 14.93C58.71 14.5664 59.1739 14.285 59.709 14.0858C60.4423 13.8128 61.1284 13.7465 61.7674 13.887C62.4104 14.026 62.9549 14.343 63.4009 14.838C63.847 15.333 64.144 15.9792 64.2919 16.7766C64.4554 17.6159 64.4092 18.4312 64.1531 19.2224C63.8971 20.0136 63.4619 20.7236 62.8475 21.3524C62.2331 21.9812 61.4721 22.4646 60.5644 22.8025Z" fill="url(#paint3_linear_539_6507)"/>
</g>
<path d="M58.3527 31.4377C58.3527 31.4377 54.8921 34.0075 52.7232 34.2047C50.3267 34.4225 48.0289 33.4543 45.6279 34.2504C45.6279 34.2504 45.9256 33.4673 48.5404 33.2559C48.5404 33.2559 44.8801 32.0261 42.0478 33.5511C39.9308 34.6911 34.2047 35.9476 30.6766 32.8398C28.5272 31.3528 25.9108 29.1581 22.2031 29.9621C22.2031 29.9621 23.7356 28.7808 26.9997 29.1514C30.2638 29.522 32.6724 33.4292 34.8583 32.2439C34.8583 32.2439 36.3834 31.4377 32.4618 29.8474C32.4618 29.8474 35.496 30.0157 37.245 29.0284C40.0871 27.424 45.413 25.2672 49.3214 31.0679C52.2279 35.3817 58.3527 31.4377 58.3527 31.4377Z" fill="url(#paint4_linear_539_6507)"/>
<path d="M49.5547 28.9409C49.5547 28.9409 48.2727 28.8988 46.354 27.0851C45.7931 26.5579 45.133 26.1959 44.4288 26.0296C43.7246 25.8632 42.9967 25.8972 42.306 26.1288C42.306 26.1288 44.9366 24.3662 46.5234 25.5318C48.1102 26.6975 47.6093 27.866 49.5547 28.9409Z" fill="url(#paint5_linear_539_6507)"/>
<path d="M46.525 25.5317C46.255 25.3414 45.954 25.2196 45.6414 25.1742C45.6878 25.2048 46.7251 25.8825 47.0105 26.4641C47.5117 27.4856 48.2571 28.4318 49.1883 28.7202C47.6716 27.7056 48.0069 26.6164 46.525 25.5317Z" fill="url(#paint6_linear_539_6507)"/>
<defs>
<filter id="filter0_i_539_6507" x="54.6143" y="8.70341" width="10.5984" height="17.4672" filterUnits="userSpaceOnUse" color-interpolation-filters="sRGB">
<feFlood flood-opacity="0" result="BackgroundImageFix"/>
<feBlend mode="normal" in="SourceGraphic" in2="BackgroundImageFix" result="shape"/>
<feColorMatrix in="SourceAlpha" type="matrix" values="0 0 0 0 0 0 0 0 0 0 0 0 0 0 0 0 0 0 127 0" result="hardAlpha"/>
<feOffset dy="2"/>
<feGaussianBlur stdDeviation="4"/>
<feComposite in2="hardAlpha" operator="arithmetic" k2="-1" k3="1"/>
<feColorMatrix type="matrix" values="0 0 0 0 0.322222 0 0 0 0 0.425333 0 0 0 0 0.483333 0 0 0 0.2 0"/>
<feBlend mode="normal" in2="shape" result="effect1_innerShadow_539_6507"/>
</filter>
<linearGradient id="paint0_linear_539_6507" x1="55.2835" y1="4.47707" x2="71.9705" y2="21.2977" gradientUnits="userSpaceOnUse">
<stop stop-color="#DAD4E2"/>
<stop offset="1" stop-color="#FBFBFB"/>
</linearGradient>
<linearGradient id="paint1_linear_539_6507" x1="62.0913" y1="6.53593" x2="56.2782" y2="34.0803" gradientUnits="userSpaceOnUse">
<stop stop-color="#F0EDF6"/>
<stop offset="1" stop-color="#DED5E3"/>
</linearGradient>
<linearGradient id="paint2_linear_539_6507" x1="57.506" y1="10.6462" x2="62.2361" y2="23.3518" gradientUnits="userSpaceOnUse">
<stop stop-color="#D7BCFF"/>
<stop offset="1" stop-color="white"/>
</linearGradient>
<linearGradient id="paint3_linear_539_6507" x1="59.4903" y1="27.0507" x2="58.1764" y2="5.50959" gradientUnits="userSpaceOnUse">
<stop stop-color="#A389E1"/>
<stop offset="1" stop-color="#40267E"/>
</linearGradient>
<linearGradient id="paint4_linear_539_6507" x1="32.6797" y1="37.2548" x2="59.4881" y2="31.7381" gradientUnits="userSpaceOnUse">
<stop offset="0.0364395" stop-color="#7960AD"/>
<stop offset="0.490037" stop-color="#C9B8DC"/>
<stop offset="1" stop-color="#F5F4F7"/>
</linearGradient>
<linearGradient id="paint5_linear_539_6507" x1="42.3694" y1="27.383" x2="49.4578" y2="27.0246" gradientUnits="userSpaceOnUse">
<stop stop-color="#978ECF"/>
<stop offset="1" stop-color="#F5F4F7"/>
</linearGradient>
<linearGradient id="paint6_linear_539_6507" x1="48.148" y1="28.3223" x2="45.8234" y2="24.5741" gradientUnits="userSpaceOnUse">
<stop stop-color="#FAF9FD"/>
<stop offset="1" stop-color="#FAF9FD" stop-opacity="0"/>
</linearGradient>
</defs>
</svg>
