<svg width="83" height="36" viewBox="0 0 83 36" fill="none" xmlns="http://www.w3.org/2000/svg">
<path d="M0 28.0834V13.8668L10.8393 13.848L10.0213 16.0774H2.59875V19.6718H8.79417L7.88663 22.1577H2.59875V28.0834H0ZM12.053 28.0834H9.2791L14.3295 13.8668H17.5377L22.5951 28.0834H19.8212L15.9896 16.7823H15.8776L12.053 28.0834ZM12.2673 19.6718H19.6027L19.7091 22.1457H12.144L12.2673 19.6718ZM32.0206 17.775C31.9552 17.1687 31.6797 16.6967 31.194 16.3589C30.7131 16.021 30.0873 15.8521 29.3168 15.8521C28.775 15.8521 28.3104 15.9331 27.9229 16.0951C27.5352 16.2571 27.2387 16.4769 27.0333 16.7546C26.8277 17.0322 26.7227 17.3492 26.718 17.7056C26.718 18.0017 26.7858 18.2586 26.9211 18.476C27.0613 18.6935 27.2504 18.8787 27.4885 19.0315C27.7267 19.1795 27.9906 19.3045 28.28 19.4063C28.5696 19.508 28.8614 19.5937 29.1557 19.6631L30.5006 19.9963C31.0422 20.1213 31.563 20.2902 32.0625 20.503C32.567 20.716 33.0176 20.9844 33.4145 21.3083C33.8161 21.6322 34.1337 22.0233 34.3671 22.4814C34.6007 22.9396 34.7174 23.4764 34.7174 24.0919C34.7174 24.9249 34.5025 25.6584 34.0729 26.2924C33.6433 26.9219 33.0222 27.4147 32.2097 27.771C31.4019 28.1228 30.4235 28.2986 29.2747 28.2986C28.1586 28.2986 27.1896 28.1273 26.3677 27.785C25.5506 27.4425 24.9108 26.9426 24.4485 26.2855C23.9908 25.6283 23.7434 24.8278 23.706 23.8836H26.2627C26.3 24.3788 26.4541 24.7908 26.725 25.1193C26.9959 25.4478 27.3485 25.6931 27.7827 25.8551C28.2216 26.0171 28.712 26.0981 29.2537 26.0981C29.8187 26.0981 30.3137 26.0147 30.7387 25.8482C31.1683 25.6769 31.5046 25.4409 31.7473 25.1402C31.9902 24.8347 32.1139 24.4784 32.1187 24.0712C32.1139 23.7009 32.0043 23.3954 31.7894 23.1547C31.5747 22.9095 31.2734 22.7059 30.8859 22.5439C30.5029 22.3773 30.0546 22.2292 29.5409 22.0997L27.9088 21.6832C26.7274 21.3824 25.7933 20.9266 25.1069 20.3156C24.4252 19.7001 24.0842 18.8833 24.0842 17.8652C24.0842 17.0276 24.313 16.2941 24.7706 15.6647C25.233 15.0353 25.8611 14.5471 26.6549 14.2C27.4488 13.8483 28.3477 13.6724 29.3518 13.6724C30.3698 13.6724 31.2617 13.8483 32.0276 14.2C32.798 14.5471 33.4028 15.0307 33.8418 15.6508C34.2807 16.2663 34.5073 16.9744 34.5212 17.775H32.0206ZM36.3747 16.0257V13.8668H44.7428L45.5252 16.0257H43.3864V28.0834H40.8087V16.0257H36.3747Z" fill="white"/>
<path d="M70.7223 0.936158L49.4216 8.75989C48.0144 9.27678 47.294 10.8326 47.8127 12.235L55.664 33.4611C56.1827 34.8634 57.744 35.5812 59.1513 35.0643L80.452 27.2406C81.8593 26.7237 82.5796 25.1679 82.0609 23.7655L74.2097 2.53942C73.6909 1.13707 72.1296 0.419266 70.7223 0.936158Z" fill="url(#paint0_linear_261_6265)"/>
<path d="M68.8998 6.58505L54.4871 11.8788C53.6075 12.2019 53.1573 13.1743 53.4815 14.0508L58.7939 28.413C59.1181 29.2894 60.0939 29.7381 60.9735 29.415L75.3862 24.1212C76.2657 23.7982 76.716 22.8258 76.3918 21.9493L71.0794 7.58709C70.7552 6.71062 69.7794 6.262 68.8998 6.58505Z" fill="url(#paint1_linear_261_6265)"/>
<g filter="url(#filter0_i_261_6265)">
<path d="M67.043 24.9403C66.1635 25.2655 65.3151 25.3923 64.4981 25.3206C63.6793 25.2445 62.9577 24.9929 62.3334 24.5657C61.7133 24.137 61.2515 23.5549 60.9476 22.8198L63.3221 21.9415C63.5718 22.4773 63.9795 22.84 64.5453 23.0296C65.1096 23.2149 65.6973 23.1945 66.3086 22.9684C66.7878 22.7911 67.1737 22.5237 67.4658 22.1664C67.7581 21.8091 67.9393 21.3956 68.0094 20.9259C68.0796 20.4562 68.0195 19.9726 67.829 19.4746C67.6441 18.9646 67.3684 18.5531 67.0016 18.24C66.6349 17.927 66.2186 17.7294 65.7527 17.6476C65.2853 17.5612 64.8031 17.6099 64.3062 17.7937C63.9001 17.9388 63.53 18.1606 63.1956 18.4586C62.8614 18.7568 62.6265 19.0729 62.4908 19.4072L60.1465 19.8629L58.2673 12.6611L66.1031 9.76304L66.8621 11.8006L61.051 13.9497L61.9911 17.6627L62.0703 17.6335C62.2116 17.2471 62.4751 16.8731 62.8606 16.5111C63.2445 16.1448 63.7091 15.8608 64.2543 15.6592C65.0722 15.3567 65.8739 15.2795 66.6596 15.4277C67.4435 15.5715 68.1451 15.9103 68.7642 16.4441C69.3833 16.9778 69.8534 17.6765 70.1749 18.5397C70.5063 19.4293 70.595 20.2987 70.441 21.1484C70.2901 21.9919 69.9238 22.748 69.3424 23.4167C68.7636 24.0795 67.9972 24.5873 67.043 24.9403Z" fill="url(#paint2_linear_261_6265)"/>
</g>
<defs>
<filter id="filter0_i_261_6265" x="58.2673" y="9.76305" width="12.2471" height="17.577" filterUnits="userSpaceOnUse" color-interpolation-filters="sRGB">
<feFlood flood-opacity="0" result="BackgroundImageFix"/>
<feBlend mode="normal" in="SourceGraphic" in2="BackgroundImageFix" result="shape"/>
<feColorMatrix in="SourceAlpha" type="matrix" values="0 0 0 0 0 0 0 0 0 0 0 0 0 0 0 0 0 0 127 0" result="hardAlpha"/>
<feOffset dy="2"/>
<feGaussianBlur stdDeviation="4"/>
<feComposite in2="hardAlpha" operator="arithmetic" k2="-1" k3="1"/>
<feColorMatrix type="matrix" values="0 0 0 0 0.322222 0 0 0 0 0.425333 0 0 0 0 0.483333 0 0 0 0.2 0"/>
<feBlend mode="normal" in2="shape" result="effect1_innerShadow_261_6265"/>
</filter>
<linearGradient id="paint0_linear_261_6265" x1="60.0719" y1="4.84805" x2="78.14" y2="23.1249" gradientUnits="userSpaceOnUse">
<stop stop-color="#DAD4E2"/>
<stop offset="1" stop-color="#FBFBFB"/>
</linearGradient>
<linearGradient id="paint1_linear_261_6265" x1="67.4694" y1="7.07721" x2="61.1951" y2="36.9114" gradientUnits="userSpaceOnUse">
<stop stop-color="#F0EDF6"/>
<stop offset="1" stop-color="#DED5E3"/>
</linearGradient>
<linearGradient id="paint2_linear_261_6265" x1="59.9824" y1="29.7129" x2="68.2353" y2="4.61269" gradientUnits="userSpaceOnUse">
<stop stop-color="#A389E1"/>
<stop offset="1" stop-color="#40267E"/>
</linearGradient>
</defs>
</svg>
